<svg width="20" height="20" viewBox="0 0 20 20" fill="none" xmlns="http://www.w3.org/2000/svg">
<path fill-rule="evenodd" clip-rule="evenodd" d="M10.9741 18.5415C13.0898 17.0979 17.9167 13.3051 17.9167 8.75016C17.9167 4.37791 14.3723 0.833496 10 0.833496C5.62779 0.833496 2.08337 4.37791 2.08337 8.75016C2.08337 13.3051 6.91029 17.0979 9.026 18.5415C9.61763 18.9452 10.3825 18.9452 10.9741 18.5415ZM10 11.2502C11.3808 11.2502 12.5 10.1309 12.5 8.75016C12.5 7.36945 11.3808 6.25016 10 6.25016C8.61933 6.25016 7.50004 7.36945 7.50004 8.75016C7.50004 10.1309 8.61933 11.2502 10 11.2502Z" fill="#898989"/>
</svg>
